# xmcd
# 
# Track frame offsets:
#     150
#     24848
#     51090
#     73495
#     93353
#     120360
#     148943
#     166078
#     191913
#     216813
# 
# Disc length: 3223
# 
# Revision: 1690234166
# Processed by: cddbd v1.5.2PL0 Copyright (c) Steve Scherf et al.
# Submitted via: fre:ac v1.0.31
# 
DISCID=8e0c950a
DTITLE=Various Artist - Những Tâm Hồn Hoang Lạnh - Ngọc Lan - Elvis Phương - Kiều Nga - Tuấn Anh - Lệ Hằng Productions
DYEAR=1990
DGENRE=Pop
TTITLE0=Kiều Nga - Tình - Văn Phụng
TTITLE1=Ngọc Lan - Kiếp Đam Mê - Duy Quang
TTITLE2=Elvis Phương - Ảo Ành - Y Vân
TTITLE3=Kiều Nga - Khóc Một Dòng Sông  - Đức Huy
TTITLE4=Elvis Phương - Xin Làm Người Tình Cô Đơn -  Châu Kỳ
TTITLE5=Ngọc Lan - Ngăn Cách - Y Vân
TTITLE6=Kiều Nga - Tình Lầm Lỡ - Lv Anh Bằng
TTITLE7=Tuấn Anh - Những Tâm Hồn Hoang Lạnh - Y Vũ - Trúc Sơn
TTITLE8=Kiều Nga - Chiếc Lá Cuối Cùng - Tuấn Khanh
TTITLE9=Elvis Phương - Vết Thương Sỏi Đá - Vĩnh Điện
EXTD=
EXTT0=
EXTT1=
EXTT2=
EXTT3=
EXTT4=
EXTT5=
EXTT6=
EXTT7=
EXTT8=
EXTT9=
PLAYORDER=
